<svg width="14" height="14" viewBox="0 0 14 14" fill="none" xmlns="http://www.w3.org/2000/svg">
<path d="M9.2 10.1333L10.1333 9.20001L7.66667 6.73334V3.66668H6.33334V7.26668L9.2 10.1333ZM7 13.6667C6.07778 13.6667 5.21111 13.4916 4.4 13.1413C3.58889 12.7916 2.88334 12.3167 2.28334 11.7167C1.68334 11.1167 1.20845 10.4111 0.858669 9.60001C0.508447 8.7889 0.333336 7.92223 0.333336 7.00001C0.333336 6.07779 0.508447 5.21112 0.858669 4.40001C1.20845 3.5889 1.68334 2.88334 2.28334 2.28334C2.88334 1.68334 3.58889 1.20823 4.4 0.85801C5.21111 0.508232 6.07778 0.333344 7 0.333344C7.92222 0.333344 8.78889 0.508232 9.6 0.85801C10.4111 1.20823 11.1167 1.68334 11.7167 2.28334C12.3167 2.88334 12.7916 3.5889 13.1413 4.40001C13.4916 5.21112 13.6667 6.07779 13.6667 7.00001C13.6667 7.92223 13.4916 8.7889 13.1413 9.60001C12.7916 10.4111 12.3167 11.1167 11.7167 11.7167C11.1167 12.3167 10.4111 12.7916 9.6 13.1413C8.78889 13.4916 7.92222 13.6667 7 13.6667ZM7 12.3333C8.47778 12.3333 9.73623 11.814 10.7753 10.7753C11.814 9.73623 12.3333 8.47779 12.3333 7.00001C12.3333 5.52223 11.814 4.26379 10.7753 3.22468C9.73623 2.18601 8.47778 1.66668 7 1.66668C5.52222 1.66668 4.264 2.18601 3.22534 3.22468C2.18622 4.26379 1.66667 5.52223 1.66667 7.00001C1.66667 8.47779 2.18622 9.73623 3.22534 10.7753C4.264 11.814 5.52222 12.3333 7 12.3333Z" fill="#A9A9A9"/>
</svg>
